<svg width="40" height="40" xmlns="http://www.w3.org/2000/svg" xmlns:xlink="http://www.w3.org/1999/xlink">
  <defs>
    <path id="a" d="M4 4h32v32H4z"/>
  </defs>
  <g fill="none" fill-rule="evenodd">
    <path d="M9.106 11.583c-.088.505.203 1 .687 1.17l.214.08v-2.111a.957.957 0 00-.9.86m3.215 4.158l-.216-.068v2.098a.958.958 0 00.902-.846 1.036 1.036 0 00-.686-1.184m1.375 13.584h2.117l-.38-3.93z" fill="#00b3ff"/>
    <mask id="b" fill="#fff">
      <use xlink:href="#a"/>
    </mask>
    <path d="M30.119 27.99c-.203 1.168-.479 2.074-.826 2.719a5.728 5.728 0 01-1.257 1.617c-.492.436-.99.725-1.492.87-.688.198-1.297.297-1.827.297h-4.424l1.9-10.933 4.425.002c.872 0 1.554.134 2.045.401.49.269.865.656 1.13 1.157.263.502.415 1.086.457 1.754a9.058 9.058 0 01-.131 2.116zm-13.931 5.503l-.17-1.803h-3.38l-.782 1.801H8.815l5.523-10.931h3.248l1.722 10.933h-3.12zM7.79 19.058a.713.713 0 01.093-1.005l.443-.418a.7.7 0 01.86-.134c.253.137.533.22.821.243v-2.691l-.726-.215a3.2 3.2 0 01-1.075-5.582 2.773 2.773 0 011.667-.632h.134v-.686c0-.394.319-.714.712-.714h.7a.7.7 0 01.7.7c.013.18.013.36 0 .538-.014.15.053.216.202.216a3.716 3.716 0 011.734.565.727.727 0 01.134 1.264l-.402.389a.697.697 0 01-.847.122 2.379 2.379 0 00-.835-.242v2.69l.806.243a2.985 2.985 0 012.167 2.582 3.054 3.054 0 01-1.399 3.147 2.54 2.54 0 01-1.264.458h-.324v.699a.712.712 0 01-.725.7h-.727c-.022 0-.046 0-.07-.002a.696.696 0 01-.656-.738.934.934 0 010-.283v-.229a.377.377 0 000-.12c-.082-.134-.376-.134-.578-.134a3.705 3.705 0 01-1.345-.565.745.745 0 01-.2-.166zM33.88 4H6.12A2.12 2.12 0 004 6.12v27.76A2.12 2.12 0 006.12 36h27.76A2.12 2.12 0 0036 33.88V6.12A2.12 2.12 0 0033.88 4z" fill="#00b3ff" mask="url(#b)"/>
    <path d="M25.484 25.037h-.742l-1.04 5.973h.73c.62 0 1.08-.078 1.368-.235.29-.155.544-.429.761-.82.218-.39.403-1.023.555-1.897.202-1.158.173-1.952-.086-2.38-.26-.426-.774-.64-1.546-.64" fill="#00b3ff" mask="url(#b)"/>
    <path d="M30.798 11.78H18.722a1.666 1.666 0 010-3.333h12.076a1.667 1.667 0 110 3.333m-5.192 6.608h-6.885a1.666 1.666 0 010-3.333h6.885a1.666 1.666 0 110 3.333" fill="#FFD2A1" mask="url(#b)"/>
  </g>
</svg>
