<svg width="40" height="40" xmlns="http://www.w3.org/2000/svg" xmlns:xlink="http://www.w3.org/1999/xlink">
  <defs>
    <path id="a" d="M0 .223h16v4.348H0z"/>
    <path id="c" d="M.42.565h18.392v17.72H.42z"/>
  </defs>
  <g fill="none" fill-rule="evenodd">
    <g transform="translate(20 29.905)">
      <mask id="b" fill="#fff">
        <use xlink:href="#a"/>
      </mask>
      <path d="M4.54.223a2.728 2.728 0 01-1.735 1.393 2.905 2.905 0 01-.637.093l-1.45.046L0 1.779v2.793h16V.223H4.54z" fill="#898989" mask="url(#b)"/>
    </g>
    <path fill="#898989" d="M23.067 22.833l1.242 4.347H36v-4.347z"/>
    <g transform="translate(4 16.19)">
      <mask id="d" fill="#fff">
        <use xlink:href="#c"/>
      </mask>
      <path d="M16.65 13.46l1.448-.047a.766.766 0 00.714-.518L15.336.737a.824.824 0 00-.883-.08L.88 7.892l.016.007c-.349.151-.552.512-.448.878l1.256 4.393c.115.406.384.465.98.534l.895.085 1.832 4.038a.8.8 0 00.941.431l1.965-.51a.372.372 0 00.26-.515L7.01 13.779l6.368-.21h-.002l3.274-.108z" fill="#2E2E2E" mask="url(#d)"/>
    </g>
    <path d="M18.83 16.755a.828.828 0 00-.376.092l-6.722 3.582h8.605l-1.002-3.501a.82.82 0 00-.505-.173" fill="#2E2E2E"/>
    <path d="M4 4v16.428h3.637l9.864-5.255a2.901 2.901 0 013.102.282l.496.385.167.588 1.144 4H36V4H4z" fill="#2E2E2E"/>
    <path d="M26.07 12.714c-.13.71-.286 1.225-.472 1.542-.184.317-.401.54-.648.666-.246.128-.636.192-1.168.192h-.622l.885-4.854h.635c.658 0 1.096.174 1.317.522.222.347.245.99.073 1.932m2.285-3.199a2.284 2.284 0 00-.965-.938c-.419-.218-.998-.328-1.742-.328h-3.774l-1.31 7.179c.01.01.026.016.04.027l.495.386.167.588.201.7h2.56c.451 0 .97-.08 1.555-.242.43-.115.855-.352 1.274-.705a4.74 4.74 0 001.074-1.314c.294-.524.53-1.26.704-2.21a7.17 7.17 0 00.112-1.72c-.037-.54-.167-1.014-.39-1.423M16.105 10.55l.324 3.193-1.804-.001 1.48-3.191zm-2.383 5.113h2.856l.922-.49a2.91 2.91 0 011.33-.322c.07 0 .137.012.206.017l-1.095-6.62h-2.77L10.46 17.13h2.593l.67-1.466z" fill="#898989"/>
  </g>
</svg>
