<svg width="40" height="40" xmlns="http://www.w3.org/2000/svg">
  <g fill="none" fill-rule="evenodd">
    <g transform="translate(4 4)">
      <rect stroke="#898989" x="8.5" y="8.5" width="23" height="23" rx="1"/>
      <rect fill="#898989" x="4" y="4" width="24" height="24" rx="1"/>
      <rect fill="#2E2E2E" width="24" height="24" rx="1"/>
    </g>
    <path d="M17.525 12l3.549.001c.7 0 1.246.099 1.64.294.393.197.695.48.907.847.211.367.333.794.367 1.283a6.057 6.057 0 01-.106 1.549c-.163.854-.383 1.517-.662 1.989a4.27 4.27 0 01-1.009 1.183c-.394.319-.793.53-1.196.636-.552.145-1.041.218-1.466.218H16l1.525-8zm2.64 1.813h-.596l-.834 4.37h.585c.498 0 .866-.057 1.097-.172.234-.113.437-.314.611-.6.175-.285.324-.749.446-1.388.162-.847.138-1.428-.07-1.74-.207-.313-.62-.47-1.24-.47zM14.687 12L16 20h-2.379l-.13-1.32h-2.577L10.32 20H8l4.211-8h2.476zm-1.64 2.074l-1.325 2.876h1.614l-.289-2.876z" fill="#FFF"/>
  </g>
</svg>
