<svg width="40" height="40" xmlns="http://www.w3.org/2000/svg">
  <g transform="translate(4 4)" fill="none" fill-rule="evenodd">
    <rect stroke="#FFD2A1" x="8.5" y="8.5" width="23" height="23" rx="1"/>
    <rect fill="#FFD2A1" x="4" y="4" width="24" height="24" rx="1"/>
    <rect fill="#00b3ff" width="24" height="24" rx="1"/>
    <path d="M13.525 8l3.549.001c.7 0 1.246.099 1.64.294.393.197.695.48.907.847.211.367.333.794.367 1.283a6.057 6.057 0 01-.106 1.549c-.163.854-.383 1.517-.662 1.989a4.27 4.27 0 01-1.009 1.183c-.394.319-.793.53-1.196.636-.552.145-1.041.218-1.466.218H12l1.525-8zm2.64 1.813h-.596l-.834 4.37h.585c.498 0 .866-.057 1.097-.172.234-.113.437-.314.611-.6.175-.285.324-.749.446-1.388.162-.847.138-1.428-.07-1.74-.207-.313-.62-.47-1.24-.47zM10.687 8L12 16H9.621l-.13-1.32H6.915L6.32 16H4l4.211-8h2.476zm-1.64 2.074L7.722 12.95h1.614l-.289-2.876z" fill="#FFF"/>
  </g>
</svg>
