<svg xmlns="http://www.w3.org/2000/svg" width="20" height="20" viewBox="0 0 20 20">
    <g fill="none" fill-rule="evenodd">
        <g fill="#1D1D1D">
            <g>
                <g>
                    <g>
                        <g>
                            <path d="M17.5 15.778c0 .49-.336.889-.75.889H3.25c-.414 0-.75-.398-.75-.89V4.223c0-.49.336-.889.75-.889h2.167v-.416c0-.23.186-.417.416-.417.23 0 .417.187.417.417v.416h3.333v-.416c0-.23.187-.417.417-.417.23 0 .417.187.417.417v.416h3.333v-.416c0-.23.187-.417.417-.417.23 0 .416.187.416.417v.416h2.167c.414 0 .75.398.75.89v11.555zm-.833-8.695H3.333v8.75h13.334v-8.75zm-5 5c.23 0 .416.187.416.417 0 .23-.186.417-.416.417H5.833c-.23 0-.416-.187-.416-.417 0-.23.186-.417.416-.417h5.834zm2.5-2.5c.23 0 .416.187.416.417 0 .23-.186.417-.416.417H5.833c-.23 0-.416-.187-.416-.417 0-.23.186-.417.416-.417h8.334zm2.5-5.416h-2.084v.416c0 .23-.186.417-.416.417-.23 0-.417-.187-.417-.417v-.416h-3.333v.416c0 .23-.187.417-.417.417-.23 0-.417-.187-.417-.417v-.416H6.25v.416c0 .23-.187.417-.417.417-.23 0-.416-.187-.416-.417v-.416H3.333V6.25h13.334V4.167z" transform="translate(-1248 -260) translate(304 231) translate(617 20) translate(67) translate(260 9)"/>
                        </g>
                    </g>
                </g>
            </g>
        </g>
    </g>
</svg>
