<svg width="20" height="20" viewBox="0 0 20 20" fill="none" xmlns="http://www.w3.org/2000/svg">
<path fill-rule="evenodd" clip-rule="evenodd" d="M9.99996 2.66663C5.95654 2.66663 2.66663 5.95654 2.66663 9.99996C2.66663 14.0434 5.95654 17.3333 9.99996 17.3333C14.0434 17.3333 17.3333 14.0434 17.3333 9.99996C17.3333 5.95654 14.0434 2.66663 9.99996 2.66663Z" fill="#EBFAF2"/>
<path fill-rule="evenodd" clip-rule="evenodd" d="M10 0.833374C15.0619 0.833374 19.1667 4.93821 19.1667 10C19.1667 15.0619 15.0619 19.1667 10 19.1667C4.93821 19.1667 0.833374 15.0619 0.833374 10C0.833374 4.93821 4.93821 0.833374 10 0.833374ZM10 2.66671C5.95662 2.66671 2.66671 5.95662 2.66671 10C2.66671 14.0435 5.95662 17.3334 10 17.3334C14.0435 17.3334 17.3334 14.0435 17.3334 10C17.3334 5.95662 14.0435 2.66671 10 2.66671ZM14.7827 6.61204C15.1357 6.97504 15.1265 7.55529 14.7635 7.90821L9.09117 13.4082C8.91333 13.5805 8.68325 13.6667 8.45317 13.6667C8.22308 13.6667 7.993 13.5805 7.81517 13.4082L5.23658 10.9075C4.87358 10.5546 4.86442 9.97529 5.21733 9.61137C5.57025 9.24837 6.1505 9.23921 6.5135 9.59212L8.45317 11.4731L13.4866 6.59187C13.8505 6.23896 14.4307 6.24812 14.7827 6.61204Z" fill="#00BA5A"/>
</svg>
