<svg xmlns="http://www.w3.org/2000/svg" xmlns:xlink="http://www.w3.org/1999/xlink" width="48" height="48" viewBox="0 0 48 48">
    <defs>
        <path id="tzdlnnzdpa" d="M0 0.349L4.504 0.349 4.504 4.577 0 4.577z"/>
        <path id="pu6yqglgpc" d="M0.983 0L29 0 29 48 0.983 48z"/>
    </defs>
    <g fill="none" fill-rule="evenodd">
        <g>
            <g>
                <g transform="translate(-420.000000, -139.000000) translate(420.000000, 139.000000) translate(0.000000, 18.000000)">
                    <mask id="cwxvgx516b" fill="#fff">
                        <use xlink:href="#tzdlnnzdpa"/>
                    </mask>
                    <path fill="#3679E1" d="M4.504 1.287L.61.35C.3 1.63.095 2.947 0 4.3l3.995.278c.078-1.108.249-2.216.509-3.29" mask="url(#cwxvgx516b)"/>
                </g>
                <path fill="#3679E1" d="M4.036 25.916l-3.987.377c.026.278.057.555.093.83v.003l.002.013.001.006.001.009.001.008.001.009.002.012.002.011.001.01.001.009.001.009.001.007.002.011.001.007.001.012.001.005.005.036v.001l.002.016.001.004.002.016v.001c.137.983.333 1.946.586 2.888l3.868-1.036c-.286-1.067-.485-2.169-.589-3.274M5.753 32.318l-3.64 1.666.091.2h.001c.004.01.008.02.013.028v.001c.01.018.017.037.026.055l.001.001.012.027.002.002.013.027.001.003.012.025.001.001.012.026.002.003.012.026.002.004.012.025.002.003.01.023.003.004.011.024.004.007.01.022.003.006.01.02.004.01.01.017.004.01.01.02.005.01.008.017.006.011.007.015.007.013.008.016.005.011.01.018.005.012.007.012.008.018.006.01.01.02.005.01.006.013.006.011.01.02.004.008.012.024.003.006.023.044.003.007c.005.01.01.016.013.025l.003.006.014.027.002.003.024.047.001.003.015.028.002.003.041.078.001.003.016.03c.224.423.46.838.706 1.245l.001.001c.015.026.03.051.047.076l.001.002.017.03.002.002.017.027.001.002.028.045.001.003.017.026.002.004.018.028.001.001.008.014.005.008.012.02.006.01.012.018.006.01.007.011.011.017.007.012.008.011.01.015c.002.005.004.01.007.013l.007.01.011.018.006.01.012.018.005.008.01.017.005.007c.004.006.01.013.013.02l.004.006.013.02.005.007c.004.007.01.014.013.022l.004.005.011.018.004.005.013.022.005.006.014.022.002.004c.011.016.022.032.032.05h.002l.015.024.002.003c.068.103.137.207.207.31l3.313-2.248c-.624-.919-1.175-1.894-1.636-2.9M7.117 13.193L3.749 11.03c-.483.75-.925 1.528-1.324 2.332l-.014.027-.001.002-.013.027-.001.002-.012.026-.001.001c-.004.01-.01.017-.013.025l-.002.004-.012.026-.002.003-.012.026-.001.001-.012.024-.002.004-.011.025-.003.005-.011.024-.003.006-.01.02-.003.006-.01.022-.004.007-.01.021-.004.01-.01.02-.004.008-.008.017-.004.008-.01.021-.004.01-.01.02-.005.01-.006.015-.007.014-.007.014-.005.012-.01.018-.005.013-.005.013c-.003.004-.006.011-.008.017l-.006.011-.008.018-.005.011-.006.014-.007.015-.008.016-.004.01-.01.021-.003.008-.013.028-.002.002-.006.016-.003.006-.012.025-.002.006-.013.028-.002.003-.021.048-.002.004-.012.028-.002.005-.014.031v.001l-.022.05-.015.032v.001l-.036.082-.001.003-.035.082-.001.001-.007.016 3.682 1.575c.436-1.017.96-2.005 1.563-2.939M11.59 8.278L9.112 5.136c-1.049.826-2.029 1.738-2.927 2.724l2.964 2.69c.747-.82 1.568-1.585 2.441-2.272M12.973 45.345c.35.18.705.353 1.064.516l.057.025h.002l.025.013h.003l.026.012h.003l.053.025.005.002.024.01.006.003.024.01.003.003.022.01.007.002.021.01.01.004.022.009.007.003c.006.003.011.006.018.008.002.002.007.003.01.004l.018.009.01.004.02.008.01.005.016.007.014.006.014.006.011.005.02.009.012.004.011.005.02.009c.004 0 .007.002.01.004l.021.009c.003 0 .006.003.01.004l.014.006.01.003.023.01.006.003.027.012h.003c.649.272 1.31.515 1.984.73l1.216-3.811c-1.056-.335-2.09-.763-3.077-1.271l-1.835 3.555z" transform="translate(-420.000000, -139.000000) translate(420.000000, 139.000000)"/>
                <g transform="translate(-420.000000, -139.000000) translate(420.000000, 139.000000) translate(19.000000, 0.000000)">
                    <mask id="ik6w79e1pd" fill="#fff">
                        <use xlink:href="#pu6yqglgpc"/>
                    </mask>
                    <path fill="#3679E1" d="M29 23.892v-.034-.068l-.001-.011v-.034V23.696l-.001-.01V23.665 23.628l-.001-.028v-.028l-.001-.013V23.538 23.517l-.001-.006-.001-.051v-.003-.02l-.001-.015v-.005-.019l-.003-.093v-.002c-.01-.367-.053-.725-.08-1.09-.022-.288-.033-.58-.064-.866-.01-.075-.01-.154-.017-.23l-.018.003c-.162-1.341-.43-2.648-.803-3.912l.015-.004-.004-.016-.003-.007-.004-.016-.003-.008-.007-.025-.002-.008-.008-.026-.002-.006-.005-.016-.001-.004-.01-.03-.001-.005-.008-.028-.002-.007-.016-.05v-.002l-.01-.032-.001-.004-.01-.032-.001-.001-.005-.017-.001-.003-.01-.031-.001-.003-.01-.033-.001-.002-.016-.051-.04-.123v-.001c-.036-.113-.093-.215-.132-.328-.28-.826-.608-1.627-.974-2.411-.06-.13-.098-.27-.16-.398l-.026.013c-.588-1.204-1.268-2.351-2.042-3.431l.018-.014-.064-.088-.02-.028-.001-.001-.031-.043-.003-.005-.016-.021-.005-.007-.016-.022-.004-.005-.01-.013-.01-.015-.01-.012-.007-.01-.011-.015-.008-.012-.01-.011-.01-.015-.007-.01c-.005-.006-.01-.011-.013-.017l-.006-.01-.012-.014-.006-.01-.012-.015-.006-.007-.014-.02-.005-.006-.015-.02-.005-.006-.013-.017-.005-.006c-.004-.007-.01-.013-.013-.02-.002-.001-.004-.003-.005-.006-.005-.005-.01-.012-.015-.02l-.005-.005-.015-.02-.004-.005c-.005-.006-.01-.012-.013-.018l-.004-.005-.015-.02-.005-.006-.015-.02-.004-.006-.016-.02-.003-.004-.015-.02-.003-.002-.016-.021L24 9.342l-.016-.02-.004-.004-.016-.022-.002-.002-.016-.02-.003-.004-.016-.021-.004-.005-.016-.02-.004-.005-.016-.02-.001-.002-.017-.022-.003-.004-.016-.02-.004-.005-.017-.022-.002-.003-.016-.02-.002-.002-.017-.021-.004-.004-.017-.022-.003-.005-.017-.02-.003-.003-.015-.02L23.73 9l-.017-.02-.004-.005-.016-.021-.004-.004-.017-.021-.002-.003-.015-.018-.004-.005-.016-.02-.005-.006-.015-.02-.005-.005-.015-.02-.004-.003-.015-.018-.005-.006-.015-.02-.005-.005-.016-.02-.005-.005c-.005-.006-.01-.011-.014-.018l-.003-.003-.016-.02-.005-.006-.015-.018-.006-.007-.015-.018-.007-.007-.011-.014-.007-.01-.014-.014-.006-.01-.014-.016-.008-.01-.011-.011-.01-.013-.01-.011-.01-.011-.011-.014-.007-.01-.014-.016c-.003-.002-.005-.005-.008-.01L23.3 8.48l-.014-.017-.008-.01-.014-.015-.007-.01-.01-.011-.008-.008-.014-.017-.005-.007-.017-.018-.006-.007-.015-.018-.007-.008-.01-.011-.005-.007-.017-.02-.005-.006-.018-.02-.004-.004-.034-.04-.002-.001-.021-.024-.002-.003-.06-.067-.023-.026c-.235-.266-.475-.525-.721-.78h-.001l-.062-.064-.002-.002-.021-.021-.004-.005-.02-.021-.004-.004-.012-.011-.002-.003-.021-.022-.006-.006-.017-.016-.007-.008-.01-.01-.014-.013-.01-.011-.01-.01-.012-.013-.011-.01-.01-.011-.013-.012-.008-.008-.014-.014-.002-.002-.006-.007-.016-.015-.002-.003h-.002c-.944-.94-1.978-1.786-3.068-2.56l.012-.017c-.052-.037-.113-.061-.166-.097-.948-.664-1.95-1.25-2.992-1.771-.1-.05-.184-.12-.284-.168l-.012.025C14.23 1.838 12.99 1.348 11.698.972l.005-.017c-.296-.086-.596-.167-.896-.242l-.003-.001-.014-.003-.001-.001-.041-.01h-.004l-.011-.003-.005-.001-.011-.003-.005-.001L10.7.687l-.003-.001-.04-.01-.003-.001-.01-.002-.007-.002-.01-.002-.007-.002-.01-.002-.007-.002-.008-.001-.011-.003-.01-.002-.012-.003-.007-.002-.01-.002-.007-.002-.01-.002-.007-.002L10.51.64 10.505.64 10.47.632 10.466.63l-.012-.003-.005-.002-.012-.002-.006-.002-.013-.002-.003-.001-.016-.003-.002-.001-.018-.004h-.001l-.016-.004-.004-.001-.014-.003-.003-.001-.015-.004h-.002L10.252.58c-.07-.015-.144-.02-.214-.036-.447-.095-.904-.16-1.36-.23-.3-.047-.592-.116-.896-.152L7.78.178C6.857.07 5.922 0 4.97 0H4.698l-.002.002H4.56c-.005.002-.01.002-.015.002h-.081c-.012.002-.024.002-.036.002h-.06c-.006.002-.012.002-.018.002H4.295L4.29.01h-.059l-.015.002h-.022c-.012 0-.025 0-.037.002h-.04c-.014.002-.025.002-.038.002h-.021l-.015.002H4.04L3.984.02h-.021l-.017.002h-.001l-.056.002h-.022c-.006.002-.012.002-.017.002h-.001c-.013 0-.025 0-.037.002H3.79L3.774.03H3.77c-.012 0-.023 0-.037.002h-.021l-.016.002h-.003c-.02 0-.037.002-.056.003H3.599l-.056.005H3.522l-.057.004c-.006 0-.011 0-.018.002H3.427L3.37.054H3.35l-.057.005H3.273l-.018.003C2.487.115 1.729.205.983.33l.66 3.945C2.733 4.092 3.853 4 4.97 4c1.148 0 2.256.153 3.352.338.44.075.876.162 1.31.265 2.127.51 4.115 1.357 5.918 2.487.242.152.5.275.736.436 3.014 2.07 5.41 4.95 6.926 8.315.167.374.3.76.445 1.145.827 2.19 1.338 4.538 1.338 7.014 0 4.008-1.213 7.727-3.253 10.86-.21.32-.45.618-.677.927-1.223 1.66-2.684 3.12-4.351 4.335-.335.245-.67.487-1.02.709-1.872 1.195-3.95 2.08-6.175 2.6-.205.049-.4.13-.604.17C7.639 43.859 6.32 44 4.97 44c-.95 0-1.906-.067-2.84-.2l-.56 3.962c.009 0 .017.002.026.003l.025.004h.002l.049.007h.004l.023.004H1.7c.008 0 .016.003.025.004h.002l.022.003h.004l.048.006h.007l.018.004h.005l.023.003h.005l.019.003h.007l.047.007h.006l.018.004h.007l.022.003h.007c.006.002.01.003.017.003h.008c.005.002.012.003.018.003h.005l.022.004h.008c.006.002.01.002.016.002h.008l.022.004h.007l.017.002h.009l.015.003h.008l.02.004h.01l.015.003h.009l.019.003h.01l.015.003h.01l.014.002h.01l.02.004h.01l.014.002c.004 0 .006 0 .01.002h.016c.004.002.01.002.014.003h.013c.004.002.009.002.013.003h.01l.012.002c.007 0 .013 0 .02.002h.012c.004 0 .007 0 .01.002h.013l.012.002c.006 0 .01 0 .017.002h.014c.004.002.007.002.01.002.005 0 .009 0 .013.002h.01c.008 0 .015.002.02.003h.013l.01.002h.013c.004.002.008.002.012.002l.015.002h.016l.012.003h.01c.005 0 .009 0 .013.002h.01l.022.003h.01l.013.002h.01l.019.003h.013l.012.002h.01l.013.002h.012l.02.003h.01l.013.002h.023c.006.002.013.002.02.003h.012c.004 0 .007 0 .01.002h.013c.004 0 .009 0 .013.002h.018c.004.002.008.002.012.002h.012c.004.002.007.002.01.002h.013l.02.003h.01c.005 0 .009 0 .013.002H3.1c.004 0 .009 0 .014.002h.014l.015.002h.012c.004 0 .008 0 .012.002h.01l.02.002h.012l.012.002h.012c.004 0 .008 0 .01.002h.02c.005 0 .008 0 .013.002h.022c.006.002.008.002.013.002h.017c.005.002.009.002.014.002h.012l.012.002h.012c.004 0 .009 0 .013.002h.019c.003 0 .007 0 .01.002h.024c.005.002.01.002.016.002H3.488c.004 0 .007 0 .01.002h.024l.02.002h.012c.004 0 .009 0 .013.002H3.593c.005.002.01.002.015.002h.014c.003 0 .007 0 .01.002h.023l.022.002H3.7l.01.002H3.738l.018.002h.024l.01.002h.03c.005.002.01.002.015.002h.025l.012.002H3.9c.005 0 .009 0 .014.002h.04c.005.002.01.002.015.002h.034c.007.002.015.002.02.002H4.05c.003 0 .006 0 .01.002h.044c.003 0 .007 0 .01.002h.046c.003 0 .006 0 .009.002h.053l.017.002h.056l.008.002h.049c.007 0 .015 0 .023.002h.079c.003 0 .006 0 .008.002h.159l.024.002h.167l.023.002H5.11l.012-.001H5.227l.008-.001H5.286l.278-.004-.001-.024c1.356-.033 2.686-.167 3.977-.416l.002.013c.046-.01.09-.025.137-.033.392-.08.772-.188 1.157-.285.34-.085.689-.15 1.023-.25h.002l.087-.026.003-.001.028-.01h.002l.056-.016.004-.001.027-.01h.003l.028-.008.027-.01h.004l.026-.008.006-.002.026-.008.003-.001.022-.007.007-.002.024-.008.007-.003.024-.007.008-.002.018-.006.008-.002.023-.008.009-.003.022-.007.009-.003.018-.006.01-.003.019-.006.012-.003.019-.007.013-.004.012-.004.019-.007.012-.004.014-.004.018-.006.014-.004.01-.004.023-.008.008-.002.027-.01.005-.001.016-.006.007-.002.025-.008.008-.002.03-.011.018-.006v-.001l.034-.011.003-.001c.21-.072.42-.147.627-.224l-.01-.027c1.258-.47 2.466-1.037 3.614-1.702l.012.02.005-.003.017-.01.008-.005.02-.012.008-.004.02-.012.007-.003.019-.012.006-.003.023-.013.004-.003.023-.014.005-.002.024-.015v-.001l.025-.013.004-.003.023-.014.004-.002.024-.014.002-.001.053-.032v-.001l.027-.015c.112-.07.209-.157.32-.228.903-.563 1.778-1.165 2.595-1.84.005-.004.01-.005.016-.01l-.002-.001c1.028-.852 1.97-1.798 2.845-2.807l.015.014c.063-.073.116-.153.178-.226.23-.272.444-.558.663-.841.18-.235.377-.458.55-.7.019-.024.037-.05.054-.075v-.001l.018-.024s0-.002.002-.002l.017-.025v-.001l.017-.023v-.001c.007-.008.012-.016.017-.024l.003-.004.015-.021.004-.006.015-.021.003-.004.013-.02.004-.005.014-.02c0-.002.003-.005.005-.007l.013-.02.005-.006.013-.02.004-.005.013-.018.005-.007.013-.02.006-.008.012-.018.007-.01.008-.013.009-.012.01-.015.006-.01.012-.016.007-.01.01-.016.008-.011.008-.013.009-.014.009-.013.008-.011.01-.016c.003-.004.006-.01.009-.012l.005-.008.014-.02.005-.01c.004-.005.009-.01.013-.017l.006-.01.008-.012.006-.008.013-.02.005-.007.014-.022.004-.007.017-.026.002-.002.009-.014.003-.004c.005-.008.01-.017.016-.024 0-.002.002-.004.003-.005l.017-.026c0-.001 0-.002.002-.003l.029-.044v-.003l.019-.026.002-.004.017-.026.002-.003.027-.043.004-.006.015-.024.003-.003c.015-.025.03-.05.047-.074l.002-.004.016-.026.003-.004.028-.044v-.003c.007-.008.012-.016.018-.025l.003-.006c.004-.008.01-.015.015-.023 0-.002.002-.004.004-.006l.026-.043c0-.002.003-.004.004-.006l.014-.022.004-.007.014-.022c0-.003.003-.005.004-.008l.008-.012.007-.012.01-.017.007-.01.01-.018.007-.01.009-.015.008-.014.004-.006-.024-.014c.69-1.133 1.297-2.32 1.795-3.566l.018.007c.047-.118.069-.247.114-.366.35-.918.643-1.862.88-2.83.032-.128.088-.247.118-.377v-.003l.007-.03v-.001l.013-.058v-.005l.007-.026v-.006l.007-.026v-.003l.006-.025c0-.002 0-.004.002-.007 0-.008.003-.016.005-.024 0-.003 0-.006.002-.008 0-.008.003-.016.004-.023v-.003l-.01-.003c.278-1.283.43-2.611.493-3.962l.03.002c.013-.271.02-.541.025-.814v-.019V24.223v-.065V23.892z" mask="url(#ik6w79e1pd)"/>
                </g>
                <path fill="#3679E1" d="M6.59 40.573l.006.007.01.01.01.011c.005.004.01.008.013.013l.007.008.016.015.007.008.014.015.008.008.013.013.006.006.016.018.007.006.016.017.006.006.016.017.005.005.016.016.005.005.018.018.005.006.018.018.004.003.017.02.003.001.02.02.002.003.02.02.003.002.02.02.002.003c.006.006.012.013.02.018l.001.002.02.02.002.003.021.02.002.002.021.021v.001l.021.02.001.001.02.021.003.003c.007.006.014.012.02.02l.002.001c.014.014.028.03.042.042l.002.001.021.021.002.002.021.02.001.001c.014.015.03.028.043.043l.001.001.021.021.003.002.02.02.002.001.043.041.002.002.021.02.001.002.066.063.002.002.021.02.001.001c.015.014.03.03.045.042l.021.021.003.002.021.02.001.001.045.041v.001l.022.02.002.003.021.02h.002l.043.041.003.002.02.02.004.003.02.018.002.002.021.02h.001l.021.02.003.002.02.02.004.002.021.02h.001l.021.02.001.001c.007.007.015.012.021.02l.003.001.021.02.003.003.021.018.001.001c.007.006.014.012.02.02l.004.001c.006.007.013.012.02.018l.004.004.02.018.004.004.02.016.002.003.02.017.004.005.02.016.004.005.02.017.004.005.017.014.005.004.018.016.006.006.018.015.006.006c.006.005.012.011.02.016l.004.005.016.014.005.005.02.016.005.006.018.015.007.006.017.015.007.006.015.012.006.006.018.016.007.006.018.014.007.007.014.012.011.01.012.01.01.007.015.015.01.008.016.012.01.01.01.008.014.012.01.008.01.01.015.012.01.01.014.01.011.01.01.008.016.013.01.01.01.007.015.013.011.01.01.008.016.012.007.007.02.016.006.006c.004.003.008.005.012.01.004.002.008.005.012.01l.014.011.008.006c.006.006.011.01.018.014l.007.007.02.017.006.004c.004.004.008.008.012.01l.003.002.024.02.004.004.024.02.002.001.07.055.001.002.026.021h.001c.23.187.464.37.702.546l2.4-3.202c-.889-.665-1.729-1.409-2.497-2.212L6.59 40.573zM17.417 5.095l-1.311-3.78c-.76.262-1.5.56-2.223.896h-.002l-.031.016h-.001l-.05.022h-.002l-.028.015c-.001 0-.003 0-.004.002l-.047.022c-.002 0-.004 0-.005.002l-.025.012-.008.004-.023.01-.008.005c-.004.002-.01.003-.014.006l-.014.007-.015.007-.012.006-.017.008-.013.007-.011.004-.02.01c-.003 0-.006.003-.01.005l-.017.008-.011.006-.016.008-.01.004-.02.009-.01.005-.02.01c-.002 0-.004.003-.006.004l-.021.01c-.002 0-.003.002-.005.003l-.022.01-.006.003c-.008.004-.015.008-.023.01l-.006.005-.024.012h-.003l-.024.012c-.001 0-.002 0-.003.002l-.025.013h-.003l-.026.014h-.001c-.26.13-.517.265-.772.405l1.923 3.509c.974-.534 1.998-.987 3.045-1.348M26.009 22.626L26.009 11.029 21.992 11.029 21.992 22.626 21.992 26.638 26.009 26.638 33.992 26.638 33.992 22.626z" transform="translate(-420.000000, -139.000000) translate(420.000000, 139.000000)"/>
            </g>
        </g>
    </g>
</svg>
