<svg xmlns="http://www.w3.org/2000/svg" width="24" height="24" viewBox="0 0 24 24">
    <g fill="none" fill-rule="evenodd">
        <g>
            <g>
                <g>
                    <g>
                        <g>
                            <path fill="#03A6C1" d="M19.5 20.5c.276 0 .5.224.5.5s-.224.5-.5.5h-1c-.276 0-.5-.224-.5-.5s.224-.5.5-.5h1zm-3 0c.276 0 .5.224.5.5s-.224.5-.5.5h-2c-.276 0-.5-.224-.5-.5s.224-.5.5-.5h2zm-4 0c.276 0 .5.224.5.5s-.224.5-.5.5h-8c-.276 0-.5-.224-.5-.5s.224-.5.5-.5h8z" transform="translate(-1649 -197) translate(49 63) translate(16 105) translate(1575 20) translate(9 9)"/>
                            <path fill="#1D1D1D" d="M18.631 3.293l2.086 2.086c.39.39.39 1.023 0 1.414L8.63 18.88c-.134.134-.304.228-.49.269l-3.449.766c-.27.06-.537-.11-.596-.38-.016-.07-.016-.145 0-.216l.766-3.449c.041-.186.135-.356.269-.49L17.217 3.293c.39-.39 1.024-.39 1.414 0zM5.858 16.065l-.02.022-.597 2.682 2.682-.596.02-.022-2.085-2.086zm10.5-10.5l-9.793 9.793 2.086 2.086 9.793-9.793-2.086-2.086zM17.924 4l-.86.858 2.087 2.086.859-.858L17.924 4z" transform="translate(-1649 -197) translate(49 63) translate(16 105) translate(1575 20) translate(9 9)"/>
                        </g>
                    </g>
                </g>
            </g>
        </g>
    </g>
</svg>
