<svg xmlns="http://www.w3.org/2000/svg" width="48" height="48" viewBox="0 0 48 48">
    <path fill="#000" fill-rule="nonzero" d="M41.695 3c-2.304 0-4.19 1.767-4.3 3.98-4.467 1.487-11.917 4.38-23.438 4.38h-1.914c-1.91 0-3.531 1.214-4.092 2.89C4.574 14.815 2 17.675 2 21.116c0 3.434 2.574 6.296 5.949 6.862.484 1.44 1.751 2.54 3.313 2.82l1.833 10.52c.352 2.018 2.134 3.483 4.243 3.483 2.623 0 4.616-2.288 4.185-4.796l-1.518-8.844c8.07.761 12.507 2.462 17.39 4.088.11 2.21 1.996 3.98 4.3 3.98 2.376 0 4.305-1.877 4.305-4.18V7.18C46 4.874 44.068 3 41.695 3zM7.742 25.055c-1.672-.576-2.871-2.125-2.871-3.942 0-1.815 1.201-3.366 2.871-3.94v7.882zm9.599 16.958c-.691.01-1.289-.48-1.415-1.16l-1.738-9.986c.95.005 1.91.029 2.873.077l1.633 9.518a1.344 1.344 0 0 1-1.353 1.55zm1.592-13.742a66.429 66.429 0 0 0-4.974-.191h-1.914a1.417 1.417 0 0 1-1.434-1.393V15.54c0-.77.644-1.393 1.434-1.393h1.914c1.64 0 3.307-.066 4.972-.191v14.315h.002zm18.46 4.029c-3.832-1.276-8.076-2.876-15.59-3.754V13.681c7.442-.869 11.642-2.44 15.59-3.753v22.374-.002zm5.74 2.747c0 .768-.644 1.393-1.436 1.393a1.417 1.417 0 0 1-1.435-1.393V7.18c0-.77.645-1.393 1.435-1.393.792 0 1.436.625 1.436 1.393v27.867z"/>
</svg>
