<svg xmlns="http://www.w3.org/2000/svg" width="48" height="48" viewBox="0 0 48 48">
  <path id="icon-grid" fill="#FFFFFF" fill-rule="evenodd" stroke="none" stroke-width="1" d="M40 27a2 2 0 0 1 2 2v11a2 2 0 0 1-1.85 1.995L40 42H29a2 2 0 0 1-2-2V29a2 2 0 0 1 2-2h11zm-21 0a2 2 0 0 1 2 2v11a2 2 0 0 1-1.85 1.995L19 42H8a2 2 0 0 1-2-2V29a2 2 0 0 1 2-2h11zM40 6a2 2 0 0 1 2 2v11a2 2 0 0 1-1.85 1.995L40 21H29a2 2 0 0 1-2-2V8a2 2 0 0 1 2-2h11zM19 6a2 2 0 0 1 2 2v11a2 2 0 0 1-2 2H8a2 2 0 0 1-2-2V8a2 2 0 0 1 2-2h11zm-1 3H9v9h9V9z" class="svg-icon-dark"/>
</svg>
