<svg width="48" height="48" xmlns="http://www.w3.org/2000/svg">
  <path xmlns="http://www.w3.org/2000/svg" id="icon-info-circle" fill="#1d1d1d" fill-rule="evenodd" stroke="none" stroke-width="1" d="M24 4c11.046 0 20 8.954 20 20s-8.954 20-20 20S4 35.046 4 24 12.954 4 24 4zm0 16a3 3 0 0 0-2.995 2.824L21 23v12a3 3 0 0 0 5.995.176L27 35V23a3 3 0 0 0-3-3zm2-10h-4a1 1 0 0 0-.993.883L21 11v4a1 1 0 0 0 .883.993L22 16h4a1 1 0 0 0 .993-.883L27 15v-4a1 1 0 0 0-.883-.993L26 10z" class="svg-icon-dark"/>
</svg>