<svg width="20" height="20" viewBox="0 0 20 20" fill="none" xmlns="http://www.w3.org/2000/svg">
<path fill-rule="evenodd" clip-rule="evenodd" d="M10 0.833374C15.0619 0.833374 19.1667 4.93821 19.1667 10C19.1667 15.0619 15.0619 19.1667 10 19.1667C4.93821 19.1667 0.833374 15.0619 0.833374 10C0.833374 4.93821 4.93821 0.833374 10 0.833374ZM10 2.66671C5.95662 2.66671 2.66671 5.95662 2.66671 10C2.66671 14.0435 5.95662 17.3334 10 17.3334C14.0435 17.3334 17.3334 14.0435 17.3334 10C17.3334 5.95662 14.0435 2.66671 10 2.66671ZM10 13.2084C10.507 13.2084 10.9167 13.6181 10.9167 14.125C10.9167 14.632 10.507 15.0417 10 15.0417C9.49312 15.0417 9.08337 14.632 9.08337 14.125C9.08337 13.6519 9.44031 13.2634 9.90005 13.2137L10 13.2084ZM10 4.95837C10.507 4.95837 10.9167 5.36812 10.9167 5.87504V11.375C10.9167 11.882 10.507 12.2917 10 12.2917C9.49312 12.2917 9.08337 11.882 9.08337 11.375V5.87504C9.08337 5.40192 9.44031 5.01344 9.90005 4.96374L10 4.95837Z" fill="#FCB300"/>
</svg>
