<svg xmlns="http://www.w3.org/2000/svg" width="431" height="200" viewBox="0 0 431 200">
  <g id="white" fill="none" fill-rule="evenodd" stroke="none" stroke-width="1">
    <path id="ru" fill="#FFF" fill-rule="nonzero" d="M32.153 103.193H69.18l.707.014c8.824.267 12.796 3.959 12.898 12.855l.002.353v11.91c0 9.19-4.35 13.115-13.6 13.215l-.368.002H58.587v12.66h19.925c2.788 0 4.274 1.86 4.274 4.648 0 3.084-1.407 5.278-4.05 5.395l-.224.004H58.587v17.13c7.443-1.492 14.703-3.163 21.22-5.023l.697-.138c.69-.133 1.35-.244 1.907-.244 2.349 0 3.643 1.226 4.399 3.832l.073.265c.132.404.17.898.18 1.35l.004.512c0 2.8-1.861 4.661-4.656 5.404-5.034 1.397-10.617 2.767-16.524 4.071l-2.38.518c-1.995.429-4.024.85-6.077 1.26l-2.475.489-2.495.48c-.834.157-1.672.314-2.511.468l-2.525.459a515.28 515.28 0 0 1-3.807.666l-2.545.429-2.547.417-2.546.403c-.849.132-1.696.262-2.543.39l-2.535.374-1.264.183-2.518.352c-.418.058-.836.114-1.253.17l-2.494.33c-2.485.32-4.939.616-7.348.884l-1.201.132H13.71c-2.904 0-5.096-1.419-5.722-5.11l-.045-.289v-1.111c0-3.177 2.046-5.038 5.215-5.413l5.637-.444 1.432-.108v-34.806c0-2.986 2.42-4.663 6.15-4.663 3.45 0 6.007 1.596 6.13 4.447l.005.216v33.314c2.075-.205 4.203-.525 6.321-.865l2.534-.412c.841-.136 1.676-.269 2.502-.393l1.4-.285 1.394-.275v-42.073H32.336c-9.564 0-13.666-3.808-13.768-12.866l-.002-.351v-11.91c0-9.152 3.96-12.937 12.882-13.208l.705-.014zm75.053 53.931l.339.01h54.417c3.149 0 5.707 1.177 7.608 3.505 1.707 2.116 2.624 4.47 2.704 6.997l.005.362v20.149c-.131 2.518-1.111 4.892-2.965 7.173-1.819 1.952-4.17 2.975-6.997 3.054l-.355.005h-54.483c-3.275-.132-5.879-1.073-7.74-2.795-2.08-1.947-3.109-4.394-3.068-7.192l.01-.337v-20.057c0-2.687.86-5.078 2.523-7.122l.232-.276.04-.06c2.185-2.311 4.802-3.458 7.73-3.416zm6.448 9.467c-1.553-.118-2.743.236-3.572 1.078-.668.773-1.022 1.868-1.066 3.26l-.005.304v13.757c0 1.546.414 2.558 1.256 3.039.765.545 1.782.84 3.062.882l.325.005H156.2c1.31-.237 2.21-.592 2.684-1.066.665-.67 1.025-1.536 1.073-2.61l.006-.25v-13.757c-.12-1.42-.415-2.558-.902-3.394-.663-.772-1.543-1.19-2.626-1.243l-.235-.005h-42.546zm5.839-62.88l39.298.006c4.65.756 7.324 2.928 7.94 6.472l.043.268.112 1.71c0 2.98-1.073 6.075-3.195 9.18l-.27.388c-3.012 4.405-6.695 8.14-10.956 11.112l-.559.383-3.972 2.788 1.763.618a137.701 137.701 0 0 0 25.35 6.26c2.012.25 3.512.989 4.469 2.223l.154.21c.786 1.014 1.182 2.152 1.231 3.56l.005.325-.019.6v.112c-.401 1.762-1.217 3.032-2.48 3.867-1.472.934-3.064 1.322-4.826 1.19-16.296-2.382-29.118-6.146-38.118-11.206l-.496-.282-.73-.283-.513.454-1.049.404-2.048.782-1.986.75-1.922.717-1.861.686-1.8.655-1.742.624-1.683.595-1.626.566-1.57.537-1.514.508-1.46.482-1.407.455-1.356.429-1.304.403-1.255.378-1.206.355-1.158.33c-.378.106-.749.209-1.112.307l-1.066.285-.516.134-1 .252-.956.232-.915.21-.874.192c-.427.09-.839.174-1.236.251l-.777.145-.374.065-.721.119-.686.101-.65.086c-.212.026-.418.05-.618.07l-.586.056-.554.04c-.18.012-.354.021-.524.028l-.494.015-.237.002-.453-.004-.426-.015-.4-.027-.377-.037-.353-.046-.331-.055a7.98 7.98 0 0 1-.457-.1l-.28-.075-.26-.082a5.734 5.734 0 0 1-.36-.135l-.218-.098a5.051 5.051 0 0 1-.104-.05l-.197-.104-.184-.108c-1.146-1.023-1.889-2.318-2.313-3.96l-.08-.334-.027-.657c0-1.591.42-2.966 1.27-4.17 1.065-1.327 2.603-2.202 4.57-2.597 10.438-1.987 19.742-4.348 27.657-7.036l.843-.29 1.782-.617-1.545-1.072c-4.42-3.089-8.081-5.857-11.44-8.666l-.627-.528-.599-.493-1.006.783-.795.522-.776.497c-.255.162-.506.319-.755.472l-.735.446-.36.213-.707.408-.686.383a38.52 38.52 0 0 1-1.943.995l-.61.281-.298.131-.58.243c-2.764 1.114-4.872 1.34-6.387.689-1.644-.553-2.775-1.565-3.34-2.98-.665-1.84-.724-3.477-.165-4.845.69-1.664 1.934-2.855 3.742-3.677 4.8-1.223 9.27-3.713 13.298-7.397l.446-.415.033-.033c4.766-4.895 9.42-7.436 13.816-7.557l.329-.005zm-53.22 9.713H35.07l-.482.01a17.51 17.51 0 0 0-.23.008l-.441.027c-2.637.2-3.758 1.11-3.815 3.833l-.002.224v10.049c0 2.896.971 3.845 3.634 4.05l.434.026.228.01.478.01 31.211-.001.473-.01.228-.01.44-.028c2.57-.204 3.945-1.11 4.017-3.818l.003-.23v-10.048c0-3.042-1.385-3.942-4.277-4.083l-.457-.015a21.945 21.945 0 0 0-.238-.004zm83.089-1.212h-26.838c-2.255.599-4.82 2.203-7.68 4.827 6.556 5.485 13.054 10.075 19.492 13.777l1.032-.63 1.003-.619 1.448-.905.927-.59.898-.577 1.29-.843 1.223-.817.778-.53.747-.519.718-.506.688-.495.657-.483.628-.472.598-.46.568-.447.538-.436.508-.424.478-.413.228-.202.433-.395.404-.384.373-.372.344-.36c.328-.354.612-.69.85-1.01.593-1.664.711-3.032.356-4.11-.335-1.012-1.152-1.544-2.454-1.6l-.235-.005zM167.603.474c3.368 0 5.465 2.104 5.465 5.892 0 3.577-2.097 6.095-5.465 6.095H101.14v9.884h69.62c10.508 0 16.4 4.209 16.4 13.671v54.779c0 4.623-2.94 6.09-7.358 6.09-4.63 0-7.997-1.467-7.997-6.09V38.12c0-3.564-2.314-4.827-6.313-4.827H101.14v68.01c0 3.926-1.93 5.498-5.139 5.951l-.456.056c-.386.041-.79.068-1.21.082l-.51.011-.26.001c-.257 0-.51-.003-.757-.012l-.488-.022c-3.93-.23-6.535-1.676-6.535-6.068V33.294H21.84c-3.992 0-6.306 1.263-6.306 4.827v52.246c0 4.63-2.953 6.313-7.57 6.313-4.629 0-7.575-1.683-7.575-6.313v-54.35c0-9.463 5.899-13.672 16.617-13.672h68.779v-9.884H19.952c-3.36 0-5.465-2.518-5.465-6.095 0-3.788 2.105-5.892 5.465-5.892h147.651z"/>
    <path id="ru-eye" fill="#FFF" fill-rule="nonzero" d="M56.488 61.736l16.29 32.32h-14.1l-7.713-19.523-7.668 19.524H29.224L45.4 61.736h11.087zm85.252 0l16.295 32.32H143.93l-7.708-19.523-7.68 19.524h-14.066l16.177-32.321h11.087z"/>
    <path id="ten" fill="#FFF" fill-rule="nonzero" d="M206.51 35.823c-4.37 0-6.373-2.37-6.373-7.104 0-4.187 2.004-6.373 6.373-6.373h132.413c4.189 0 6.373 2.186 6.373 6.373 0 4.735-2.184 7.104-6.373 7.104h-59.742V77.89h61.17c4.182 0 6.379 2.187 6.379 6.374 0 4.738-2.197 7.105-6.38 7.105h-60.808c.552 7.103 2.19 13.663 4.741 19.486 2.917 7.469 8.194 15.122 15.842 22.767 6.557 6.197 14.94 12.206 25.318 17.851 7.286 3.638 16.756 7.646 28.408 11.842 2.19 1.45 3.465 3.46 3.465 6.366-.361 4.374-2.373 6.746-6.378 7.103-1.815 0-4.005-.543-6.372-1.45-14.572-5.103-26.593-10.934-35.701-17.3-9.832-6.197-17.841-12.757-23.674-19.494-6.188-7.647-10.561-16.03-13.113-25.134-2.729 10.197-8.01 19.488-15.657 27.869-7.832 8.011-17.489 15.293-29.146 21.668a303.697 303.697 0 0 1-26.41 11.662c-2.544 1.457-4.37 2.179-5.64 2.179-4.556-.357-6.925-2.73-7.105-7.104 0-2.73 1.093-4.915 3.463-6.366 18.575-6.195 32.414-12.755 41.7-19.316 10.202-7.096 18.396-15.835 24.225-26.397 4.364-7.475 6.925-16.214 7.645-26.233H207.71c-4.378 0-6.382-2.366-6.382-7.104 0-4.187 2.004-6.374 6.382-6.374h57.816V35.822H206.51z"/>
    <path id="bubble" fill="#404040" fill-rule="nonzero" d="M418.671 22.567h-46.729c-6.26 0-11.324 5.073-11.324 11.327v90.328l-14.868 18.516 26.111.041.08.002h46.73c6.254 0 11.324-5.077 11.324-11.33V33.89c0-6.254-5.07-11.324-11.324-11.324z"/>
    <path id="bubble-txt" fill="#FFF" fill-rule="nonzero" d="M407.406 112.231c2.828 0 4.125.947 4.199 3.317l.003.22v10.462c0 2.41-1.163 3.435-3.722 3.495l-.244.003h-.374a39.887 39.887 0 0 0 8.023 1.27c.86.049 1.418.559 1.48 1.337l.005.149v.283c-.136.903-.65 1.463-1.51 1.526l-.166.006h-.238c-4.491-.283-9.903-1.578-13.638-3.301-.656-.256-.953-.69-.995-1.133l-.005-.13h-10.528v.02c0 .48-.236.914-.868 1.203-3.384 1.645-8.224 2.855-12.62 3.294l-.571.053h-.244c-.907 0-1.584-.578-1.676-1.486-.052-.144-.052-.236-.052-.335 0-.855.48-1.388 1.387-1.434a39.863 39.863 0 0 0 7.904-1.341c-2.335-.102-3.47-1.06-3.54-3.255l-.004-.224v-10.456c0-2.461 1.262-3.477 3.952-3.537l.257-.003 23.785-.003zm.757 12.013H382.85v1.894c0 .767.426 1.022 1.232 1.05l.155.002h22.589c.855 0 1.284-.21 1.331-.914l.005-.138v-1.894zm0-4.367l-25.312.007v2.123l25.312-.006v-2.124zm-1.336-5.162h-22.589c-.853 0-1.329.216-1.382.921l-.005.138v1.854h25.312v-1.86c0-.762-.38-1.022-1.18-1.05l-.156-.003zm6.544-16.86c2.971 0 4.317.743 4.395 2.646l.004.182v7.05c0 1.983-1.255 2.735-4.125 2.78l-.274.001H377.02c-2.921 0-4.258-.692-4.337-2.599l-.003-.182v-7.046c0-1.98 1.248-2.779 4.07-2.825l.27-.003 36.352-.003zm-27.152 2.138h-8.03c-.934 0-1.438.163-1.494.84l-.006.133v6.487c0 .706.45.91 1.33.932l.17.002h8.03v-8.394zm13.44 0h-9.535v8.394h9.535v-8.394zm12.594 0h-8.7v8.394l8.7-.003c.897 0 1.445-.163 1.506-.807l.006-.127v-6.484c0-.789-.559-.973-1.512-.973zM394.636 82.27c1.212 0 1.937.464 2.006 1.415l.006.154v2.22h19.8c.724 0 1.177.61 1.177 1.453 0 .786-.401 1.467-1.052 1.545l-.125.007-19.8.003v3.988h15.842c.73 0 1.177.671 1.177 1.394 0 .78-.396 1.426-1.051 1.5l-.126.006h-34.642c-.73 0-1.178-.674-1.178-1.506 0-.678.393-1.31 1.044-1.386l.134-.008h14.788v-3.988h-18.524c-.783 0-1.23-.72-1.23-1.555 0-.793.397-1.38 1.096-1.447l.134-.007h18.524v-2.22c0-1.055.665-1.568 2-1.568zM381.97 32.905c1.348 0 2.137.565 2.137 1.64v7.162h4.504c.961 0 1.586.792 1.586 1.916 0 1.18-.625 1.97-1.586 1.97h-4.504v6.931a49.229 49.229 0 0 0 2.953-1.32l.875-.429c.282-.174.572-.224.789-.224.625 0 1.118.454 1.473 1.24.164.329.223.664.223 1.006 0 .618-.289 1.079-.96 1.466-1.22.679-2.651 1.351-4.185 2.03l-1.168.509v13.73c0 3.61-1.683 5.077-5.977 5.077-1.796 0-3.143-.174-4.498-.457-.842-.167-1.355-.904-1.355-1.913l.004-.205a1.79 1.79 0 0 1 .056-.364c.17-1.118.842-1.624 1.577-1.624.112 0 .224 0 .388.059.907.22 2.256.388 3.387.388 1.854 0 2.25-.335 2.25-1.914V58.38a126.05 126.05 0 0 1-3.575 1.288l-1.356.463-.647.219-.315.063a2.291 2.291 0 0 1-.415.045c-.782 0-1.46-.503-1.742-1.52a2.663 2.663 0 0 1-.177-.9c0-.79.46-1.348 1.242-1.575.417-.124.85-.257 1.295-.397l1.369-.441.705-.233 1.436-.483 2.18-.75v-8.566h-6.308c-1.071 0-1.578-.79-1.578-1.914 0-1.18.507-1.972 1.578-1.972h6.307v-7.162c0-1.075.796-1.64 2.032-1.64zm21.805-3.946c.158 0 .352.017.56.043l.427.058c1.098.26 1.73.734 1.73 1.464 0 .098 0 .263-.053.414-.67 2.188-1.545 4.202-2.445 6.01l-.27.536 9.042-.003c3.056 0 4.62 1.193 4.697 4.338l.003.252v28.882c0 3.306-1.485 4.59-4.463 4.653l-.238.002h-17.262c-3.108 0-4.623-1.198-4.699-4.399l-.003-.256V42.074c0-3.251 1.436-4.524 4.46-4.587l.242-.003h3.873a50.932 50.932 0 0 0 2.654-6.762l.121-.405c.263-.997.783-1.358 1.624-1.358zm9.727 28.756l-18.735.004v12.61c0 1.04.48 1.424 1.47 1.46l.161.003 15.42-.003c1.1 0 1.63-.333 1.68-1.302l.004-.158V57.715zm-1.683-16.472l-15.42.003c-1.044 0-1.577.288-1.627 1.298l-.004.165v11.298h18.735V42.709c0-1.144-.526-1.466-1.684-1.466z"/>
  </g>
</svg>
