<svg width="40" height="40" xmlns="http://www.w3.org/2000/svg">
  <path d="M4 36h5.477V25.576H4zm9.208 0h5.478v-7.038h-5.478zm8.659 0h5.477V22.453h-5.477zm8.656 0H36V14.066h-5.477zM19.897 14.283a6.18 6.18 0 01-2.483 4.06 6.186 6.186 0 01-4.629 1.116 6.176 6.176 0 01-4.06-2.483 6.177 6.177 0 01-1.118-4.627 6.176 6.176 0 012.485-4.063 6.175 6.175 0 016.783-.34l-3.738 4.9a.774.774 0 00.925 1.178l5.641-2.453c.256.872.34 1.789.194 2.712m1.386-6.45A9.244 9.244 0 0015.2 4.115c-5.072-.8-9.85 2.677-10.65 7.752a9.26 9.26 0 001.67 6.93 9.26 9.26 0 006.082 3.72c.493.075.983.113 1.47.113a9.256 9.256 0 005.462-1.784 9.25 9.25 0 003.718-6.083 9.253 9.253 0 00-1.67-6.93" />
</svg>
