<svg xmlns="http://www.w3.org/2000/svg" xmlns:xlink="http://www.w3.org/1999/xlink" width="38" height="38" viewBox="0 0 38 38">
    <defs>
        <path id="i6e3y3zz0a" d="M0 0.955L35.842 0.955 35.842 26.907 0 26.907z"/>
    </defs>
    <g fill="none" fill-rule="evenodd">
        <g>
            <g>
                <g>
                    <g transform="translate(-201.000000, -112.000000) translate(201.000000, 112.000000) translate(1.000000, 4.000000) translate(0.000000, 0.045500)">
                        <mask id="wsvdnufkkb" fill="#fff">
                            <use xlink:href="#i6e3y3zz0a"/>
                        </mask>
                        <path fill="#1D1D1D" d="M7.373 7.484c-.478.003-.886.344-.975.814l-3.14 16.56C2.538 24.689 2 24.045 2 23.275V4.588c0-.9.733-1.633 1.634-1.633h7.998c.19 0 .37.074.504.209l2.318 2.318c.512.513 1.193.795 1.919.795H30.4c.189 0 .343.154.343.343v.69l-23.371.174zm28.242.16c-.192-.233-.462-.34-.78-.365l-2.091.016V6.62c0-1.292-1.051-2.343-2.343-2.343H16.373c-.188 0-.373-.076-.505-.21L13.55 1.75c-.513-.513-1.194-.795-1.92-.795H3.635C1.63.955 0 2.585 0 4.588v18.686c0 2.003 1.63 3.633 3.634 3.633h12.045c.552 0 1-.448 1-1s-.448-1-1-1H5.284L8.21 9.477l25.403-.19-1.106 5.352c-.112.54.236 1.07.777 1.18.537.115 1.07-.235 1.182-.776l1.356-6.562c.06-.295-.015-.603-.207-.836z" mask="url(#wsvdnufkkb)"/>
                    </g>
                    <path fill="#1D1D1D" d="M29.875 23.856c.586.585.586 1.536 0 2.121-.293.293-.677.44-1.061.44-.383 0-.767-.147-1.06-.44l-1.748-1.747-1.748 1.747c-.293.293-.676.44-1.06.44s-.768-.147-1.061-.44c-.586-.585-.586-1.536 0-2.12l1.748-1.749-1.748-1.748c-.586-.585-.586-1.535 0-2.12.586-.587 1.535-.587 2.121 0l1.748 1.747 1.748-1.748c.586-.586 1.535-.586 2.121 0 .586.586.586 1.536 0 2.121l-1.748 1.748 1.748 1.748zm-3.931-9.685c-4.383 0-7.937 3.554-7.937 7.937 0 4.384 3.554 7.937 7.937 7.937 4.384 0 7.937-3.553 7.937-7.937 0-4.383-3.553-7.937-7.937-7.937z" transform="translate(-201.000000, -112.000000) translate(201.000000, 112.000000) translate(1.000000, 4.000000)"/>
                </g>
            </g>
        </g>
    </g>
</svg>
