<svg xmlns="http://www.w3.org/2000/svg" width="84" height="84" viewBox="0 0 84 84">
    <g fill="none" fill-rule="evenodd">
        <g>
            <g>
                <g>
                    <g>
                        <g>
                            <path fill="#00BA5A" d="M75.996 37.998C75.996 17.016 58.981 0 37.998 0 17.016 0 0 17.016 0 37.998c0 20.983 17.016 37.998 37.998 37.998 20.983 0 37.998-17.015 37.998-37.998" transform="translate(-918.000000, -426.000000) translate(720.000000, 383.000000) translate(195.000000, 40.000000) translate(3.128492, 3.128492) translate(3.454376, 3.454376)"/>
                            <path fill="#FFF" d="M31.586 53.197c-.954 0-1.908-.357-2.645-1.071L18.252 41.76c-1.504-1.463-1.542-3.864-.08-5.373 1.464-1.505 3.869-1.543 5.374-.08l8.04 7.797L52.451 23.87c1.508-1.462 3.914-1.425 5.373.084 1.463 1.505 1.425 3.91-.08 5.373L34.23 52.126c-.738.714-1.691 1.071-2.645 1.071" transform="translate(-918.000000, -426.000000) translate(720.000000, 383.000000) translate(195.000000, 40.000000) translate(3.128492, 3.128492) translate(3.454376, 3.454376)"/>
                        </g>
                    </g>
                </g>
            </g>
        </g>
    </g>
</svg>
