<svg xmlns="http://www.w3.org/2000/svg" width="48" height="48" viewBox="0 0 48 48">
  <defs>
    <linearGradient id="linearGradient-1" x1="100%" x2="100%" y1="0%" y2="100%">
      <stop offset="0%" stop-color="#1D1D1D"/>
      <stop offset="100%" stop-color="#444"/>
    </linearGradient>
  </defs>
  <path id="icon-bear-mono" fill="url(#linearGradient-1)" fill-rule="evenodd" stroke="none" stroke-width="1" d="M34 6a5.001 5.001 0 0 1 4.6 3.036A5 5 0 0 1 43 14v19a5 5 0 0 1-5 5h-1.035a3.5 3.5 0 0 1-3.465 3h-7a3.489 3.489 0 0 1-2.45-1H19c-7.732 0-14-6.268-14-14V11a5 5 0 0 1 9.584-2h14.832A5.001 5.001 0 0 1 34 6zm-.5 30h-7a1.5 1.5 0 0 0 0 3h7a1.5 1.5 0 0 0 0-3zM39 11.17V26c0 3.372-1.192 6.465-3.177 8.882.35.31.637.69.84 1.118H38a3 3 0 0 0 3-3V14a3.001 3.001 0 0 0-2-2.83zM21 23h-5l-.15.005a2 2 0 0 0-1.844 1.838L14 25v2.5l.005.212a4.5 4.5 0 0 0 4.277 4.283L18.5 32h7l.212-.005a4.5 4.5 0 0 0 4.283-4.277L30 27.5V25l-.005-.15a2 2 0 0 0-1.838-1.844L28 23h-5v3.5l.007.144A1.5 1.5 0 0 0 26 26.5a1 1 0 0 1 2 0 3.5 3.5 0 0 1-6 2.45 3.5 3.5 0 0 1-6-2.45 1 1 0 0 1 2 0 1.5 1.5 0 0 0 2.993.144L21 26.5V23zm10-5a1 1 0 0 0-.993.883L30 19v2a1 1 0 0 0 1.993.117L32 21v-2a1 1 0 0 0-1-1zm-18 0a1 1 0 0 0-.993.883L12 19v2a1 1 0 0 0 1.993.117L14 21v-2a1 1 0 0 0-1-1zm21-9a2 2 0 0 0-2 2v1h4v-1a2 2 0 0 0-2-2zM10 9a2 2 0 0 0-2 2v1h4v-1a2 2 0 0 0-2-2zm19 2H15v1h14v-1z" class="svg-color-dark"/>
</svg>
