<svg width="40" height="40" xmlns="http://www.w3.org/2000/svg" xmlns:xlink="http://www.w3.org/1999/xlink">
  <defs>
    <path id="a" d="M4 4h32v32H4z"/>
  </defs>
  <g fill="none" fill-rule="evenodd">
    <mask id="b" fill="#fff">
      <use xlink:href="#a"/>
    </mask>
    <path d="M26.064 26.333h-3.731v3.73a2.334 2.334 0 11-4.666 0v-3.73h-3.73A2.332 2.332 0 0111.602 24a2.333 2.333 0 012.333-2.334h3.731v-3.73a2.332 2.332 0 114.666 0v3.73h3.731A2.333 2.333 0 0128.397 24a2.332 2.332 0 01-2.333 2.333M34.667 4H5.333C4.597 4 4 4.597 4 5.333v1.333h1.333v28c0 .736.597 1.334 1.334 1.334h26.666c.738 0 1.334-.598 1.334-1.334v-28H36V5.333C36 4.597 35.403 4 34.667 4" fill="#00b3ff" mask="url(#b)"/>
    <path d="M36 6.667v2.46a4 4 0 11-8 0 4 4 0 11-8 0 4 4 0 11-8 0 4 4 0 11-8 0v-2.46h32z" fill="#FFD2A1" mask="url(#b)"/>
  </g>
</svg>
