<svg width="40" height="40" xmlns="http://www.w3.org/2000/svg" xmlns:xlink="http://www.w3.org/1999/xlink">
  <defs>
    <path id="a" d="M0 0h32v32H0z"/>
  </defs>
  <g fill="none" fill-rule="evenodd">
    <g transform="translate(4 4)">
      <mask id="b" fill="#fff">
        <use xlink:href="#a"/>
      </mask>
      <path d="M22.064 22.333h-3.731v3.73a2.334 2.334 0 11-4.666 0v-3.73h-3.73A2.332 2.332 0 017.602 20a2.333 2.333 0 012.333-2.334h3.731v-3.73a2.332 2.332 0 114.666 0v3.73h3.731A2.333 2.333 0 0124.397 20a2.332 2.332 0 01-2.333 2.333M30.667 0H1.333C.597 0 0 .597 0 1.333v1.333h1.333v28c0 .736.597 1.334 1.334 1.334h26.666c.738 0 1.334-.598 1.334-1.334v-28H32V1.333C32 .597 31.403 0 30.667 0" fill="#2E2E2E" mask="url(#b)"/>
    </g>
    <path d="M36 6.667v2.46a4 4 0 11-8 0 4 4 0 11-8 0 4 4 0 11-8 0 4 4 0 11-8 0v-2.46h32z" fill="#898989"/>
  </g>
</svg>
