<svg width="20" height="20" viewBox="0 0 20 20" fill="none" xmlns="http://www.w3.org/2000/svg">
<path fill-rule="evenodd" clip-rule="evenodd" d="M9.6155 3.44669C9.50967 3.51336 9.41967 3.60586 9.35467 3.71753L2.6005 15.4317C2.38717 15.8159 2.51633 16.3392 2.8905 16.5642C3.0005 16.63 3.1255 16.6659 3.25217 16.6675H16.753C17.1638 16.6625 17.5022 16.2892 17.4972 15.8342C17.4963 15.6884 17.4588 15.545 17.3888 15.42L10.6397 3.71586C10.533 3.53253 10.3638 3.40336 10.1655 3.35419C9.97883 3.30753 9.783 3.34169 9.6155 3.44669Z" fill="#FEF0ED"/>
<path fill-rule="evenodd" clip-rule="evenodd" d="M10.5605 1.73585C11.203 1.89335 11.743 2.29919 12.0814 2.87919L18.8389 14.5984C19.0489 14.9767 19.1597 15.3934 19.164 15.8159C19.1789 17.19 18.1014 18.3192 16.7622 18.3342H3.24219C2.81136 18.3292 2.39636 18.2117 2.03386 17.9934C0.890523 17.3084 0.493857 15.79 1.14969 14.61L7.91386 2.87919C8.11469 2.53502 8.39719 2.24252 8.72886 2.03502C9.27886 1.68752 9.93302 1.58169 10.5605 1.73585ZM9.61552 3.44669C9.50969 3.51335 9.41969 3.60585 9.35469 3.71752L2.60052 15.4317C2.38719 15.8159 2.51636 16.3392 2.89052 16.5642C3.00052 16.63 3.12552 16.6659 3.25219 16.6675H16.753C17.1639 16.6625 17.5022 16.2892 17.4972 15.8342C17.4964 15.6884 17.4589 15.545 17.3889 15.42L10.6397 3.71585C10.533 3.53252 10.3639 3.40335 10.1655 3.35419C9.97886 3.30752 9.78302 3.34169 9.61552 3.44669ZM9.99761 13.7509C10.4584 13.7509 10.8309 14.1234 10.8309 14.5842C10.8309 15.045 10.4584 15.4175 9.99761 15.4175C9.53677 15.4175 9.16427 15.045 9.16427 14.5842C9.16427 14.1563 9.48546 13.8045 9.90031 13.7565L9.99761 13.7509ZM9.99761 6.25085C10.4584 6.25085 10.8309 6.62335 10.8309 7.08419V12.0842C10.8309 12.545 10.4584 12.9175 9.99761 12.9175C9.53677 12.9175 9.16427 12.545 9.16427 12.0842V7.08419C9.16427 6.65627 9.48546 6.30452 9.90031 6.25645L9.99761 6.25085Z" fill="#F24013"/>
</svg>
